# This file uses centimeters as units for non-parametric coordinates.

mtllib cube.mtl
g default
v -0.400000 -0.400000 -0.400000
v -0.400000 -0.400000 1.400000
v -0.400000 1.400000 -0.400000
v -0.400000 1.400000 1.400000
v 1.400000 -0.400000 -0.400000
v 1.400000 -0.400000 1.400000
v 1.400000 1.400000 -0.400000
v 1.400000 1.400000 1.400000
vn -1.000000 0.000000 0.000000
vn -1.000000 0.000000 0.000000
vn -1.000000 0.000000 0.000000
vn -1.000000 0.000000 0.000000
vn 1.000000 0.000000 0.000000
vn 1.000000 0.000000 0.000000
vn 1.000000 0.000000 0.000000
vn 1.000000 0.000000 0.000000
vn 0.000000 -1.000000 0.000000
vn 0.000000 -1.000000 0.000000
vn 0.000000 -1.000000 0.000000
vn 0.000000 -1.000000 0.000000
vn 0.000000 1.000000 0.000000
vn 0.000000 1.000000 0.000000
vn 0.000000 1.000000 0.000000
vn 0.000000 1.000000 0.000000
vn 0.000000 0.000000 -1.000000
vn 0.000000 0.000000 -1.000000
vn 0.000000 0.000000 -1.000000
vn 0.000000 0.000000 -1.000000
vn 0.000000 0.000000 1.000000
vn 0.000000 0.000000 1.000000
vn 0.000000 0.000000 1.000000
vn 0.000000 0.000000 1.000000
s off
g cube:Mesh
usemtl initialShadingGroup
f 1//1 2//2 4//3 3//4
f 5//5 7//6 8//7 6//8
f 1//9 5//10 6//11 2//12
f 3//13 4//14 8//15 7//16
f 1//17 3//18 7//19 5//20
f 2//21 6//22 8//23 4//24
